<?xml version="1.0" standalone="no"?>
<!DOCTYPE svg PUBLIC "-//W3C//DTD SVG 20010904//EN"
 "http://www.w3.org/TR/2001/REC-SVG-20010904/DTD/svg10.dtd">
<svg version="1.0" xmlns="http://www.w3.org/2000/svg"
 width="75.000000pt" height="75.000000pt" viewBox="0 0 75.000000 75.000000"
 preserveAspectRatio="xMidYMid meet">
<metadata>
Created by potrace 1.16, written by Peter Selinger 2001-2019
</metadata>
<g transform="translate(0.000000,75.000000) scale(0.100000,-0.100000)"
fill="#000000" stroke="none">
<path d="M170 703 c14 -3 33 -12 43 -21 17 -15 16 -16 -11 -28 -16 -6 -45 -26
-65 -43 l-36 -32 -14 28 c-18 35 -13 50 27 74 17 10 26 19 19 19 -6 0 -25 -12
-42 -26 -43 -36 -40 -87 8 -164 5 -8 17 -40 26 -72 13 -46 22 -58 47 -69 17
-7 37 -26 46 -46 16 -34 18 -34 62 -28 25 4 47 11 48 16 8 22 36 40 53 35 62
-19 59 -20 59 10 0 22 -8 33 -30 46 -31 18 -36 33 -21 57 7 12 13 12 24 3 22
-18 28 -3 6 19 -10 10 -16 25 -12 34 3 10 -6 28 -24 48 -16 18 -37 44 -46 58
-10 17 -28 29 -51 33 -20 4 -47 18 -61 31 -15 16 -34 24 -52 24 -27 -2 -27 -2
-3 -6z"/>
</g>
</svg>
