<?xml version="1.0" standalone="no"?>
<!DOCTYPE svg PUBLIC "-//W3C//DTD SVG 20010904//EN"
 "http://www.w3.org/TR/2001/REC-SVG-20010904/DTD/svg10.dtd">
<svg version="1.0" xmlns="http://www.w3.org/2000/svg"
 width="1920.000000pt" height="1200.000000pt" viewBox="0 0 1920.000000 1200.000000"
 preserveAspectRatio="xMidYMid meet">

<g transform="translate(0.000000,1200.000000) scale(0.100000,-0.100000)"
fill="#000000" stroke="none">
<path d="M0 6000 l0 -6000 9600 0 9600 0 0 6000 0 6000 -9600 0 -9600 0 0
-6000z m5781 3654 c-54 -23 -171 -57 -178 -51 -3 3 37 19 89 35 100 32 144 40
89 16z m1499 -34 c0 -5 -12 -10 -27 -9 l-28 1 25 8 c14 4 26 8 28 9 1 1 2 -3
2 -9z m-220 -494 c0 -7 -161 -58 -167 -53 -2 3 31 17 74 30 85 27 93 29 93 23z
m-730 -96 c-8 -5 -19 -10 -25 -10 -5 0 -3 5 5 10 8 5 20 10 25 10 6 0 3 -5 -5
-10z m12096 -95 c-23 -17 -36 -19 -36 -6 0 11 18 19 40 20 11 0 10 -3 -4 -14z
m-1496 -45 c-8 -5 -22 -10 -30 -10 -13 0 -13 1 0 10 8 5 22 10 30 10 13 0 13
-1 0 -10z m-1845 -66 c-35 -27 -216 -115 -228 -111 -10 3 228 127 243 127 3
-1 -4 -8 -15 -16z m855 1 c0 -7 -145 -75 -182 -86 -47 -13 -31 -1 40 31 37 16
81 37 97 44 33 16 45 19 45 11z m-2636 -30 c-29 -22 -42 -17 -15 6 13 11 26
17 29 14 3 -3 -3 -12 -14 -20z m-3939 -61 c-22 -19 -53 -42 -70 -51 -29 -15
-29 -15 -15 2 20 24 102 85 115 84 6 0 -8 -16 -30 -35z m5179 7 c-84 -51 -184
-102 -184 -93 0 6 44 33 98 61 96 50 146 68 86 32z m1955 -15 c-11 -11 -161
-67 -166 -62 -3 3 7 11 23 17 16 6 49 20 74 30 42 17 79 25 69 15z m-4798 -97
c38 -28 69 -53 69 -55 0 -6 -92 53 -125 80 -54 45 -14 27 56 -25z m5763 16
c-39 -17 -91 -30 -82 -20 9 10 80 34 98 34 8 0 1 -7 -16 -14z m-3365 2 c-2 -2
-22 -14 -44 -26 l-40 -23 30 26 c17 14 36 26 44 26 8 0 12 -1 10 -3z m-1154
-53 c-101 -85 -365 -281 -365 -271 0 2 28 26 63 53 34 26 64 51 67 54 3 3 39
30 80 61 41 30 98 71 125 92 57 42 74 48 30 11z m620 -104 c-10 -11 -21 -17
-24 -14 -3 3 3 12 13 20 28 20 32 17 11 -6z m5135 -119 c-20 -12 -133 -41
-138 -36 -2 2 16 9 39 15 24 6 55 15 69 20 33 11 49 12 30 1z m-3921 -35 c-2
-2 -15 -9 -29 -15 -24 -11 -24 -11 -6 3 16 13 49 24 35 12z m2251 -66 c0 -5
-10 -10 -22 -9 -22 0 -22 1 -3 9 11 5 21 9 23 9 1 1 2 -3 2 -9z m940 -80 c0
-5 -6 -10 -12 -10 -7 0 -24 -3 -38 -6 -17 -5 -22 -3 -15 4 9 9 30 17 58 21 4
0 7 -3 7 -9z m645 -79 c-15 -13 -95 -30 -100 -21 -3 5 14 13 37 18 58 13 74
14 63 3z m-6407 -786 c-3 -3 -20 13 -38 37 l-33 43 38 -37 c22 -21 36 -40 33
-43z m-3039 -136 c-22 -74 -43 -136 -46 -139 -7 -7 6 55 27 120 9 30 26 84 36
119 10 36 20 58 22 50 1 -8 -16 -76 -39 -150z m2461 -429 c-14 -10 -27 -16
-30 -13 -6 6 30 33 44 33 6 0 0 -9 -14 -20z m-290 -364 c17 -70 30 -132 28
-138 -4 -10 -68 238 -68 261 0 31 11 0 40 -123z m521 0 c-7 -8 -24 -38 -39
-67 -47 -94 -98 -113 -196 -76 l-39 14 64 36 c85 47 202 106 213 107 5 0 3 -6
-3 -14z m15 -271 c-11 -8 -22 -12 -25 -9 -6 6 19 24 34 24 6 -1 1 -7 -9 -15z
m-1486 -42 c0 -55 -5 -54 -14 5 -4 26 -2 42 4 42 5 0 10 -21 10 -47z m-3625
-3 c3 -5 1 -10 -4 -10 -6 0 -11 5 -11 10 0 6 2 10 4 10 3 0 8 -4 11 -10z
m5203 -51 c-4 -13 -137 -71 -152 -66 -10 3 130 76 147 77 5 0 7 -5 5 -11z
m-1481 -156 c-3 -10 -5 -4 -5 12 0 17 2 24 5 18 2 -7 2 -21 0 -30z m2153 -33
c-34 -30 -50 -37 -50 -22 0 6 67 49 80 51 3 0 -11 -13 -30 -29z m-7135 -190
c-16 -4 -46 -8 -65 -8 -32 0 -33 1 -10 8 14 4 43 8 65 8 38 0 39 -1 10 -8z
m7384 -13 c-13 -13 -164 -84 -225 -107 -56 -22 -8 9 111 69 111 56 149 69 114
38z m-1669 -27 c0 -5 -2 -10 -4 -10 -3 0 -8 5 -11 10 -3 6 -1 10 4 10 6 0 11
-4 11 -10z m2475 -106 c-38 -30 -61 -36 -32 -10 15 14 33 26 40 26 7 0 3 -8
-8 -16z m-5945 -74 c0 -5 -5 -10 -11 -10 -5 0 -7 5 -4 10 3 6 8 10 11 10 2 0
4 -4 4 -10z m-2408 -261 c-49 -19 -394 -97 -382 -86 14 13 339 94 385 95 17 1
17 0 -3 -9z m7683 1 c3 -5 1 -10 -4 -10 -6 0 -11 5 -11 10 0 6 2 10 4 10 3 0
8 -4 11 -10z m1676 -204 c-21 -26 -121 -99 -127 -93 -5 5 123 107 134 107 2 0
-1 -6 -7 -14z m-2421 -106 c0 -5 -2 -10 -4 -10 -3 0 -8 5 -11 10 -3 6 -1 10 4
10 6 0 11 -4 11 -10z m-6462 -95 c-11 -12 -152 -56 -167 -52 -9 2 20 15 64 29
77 25 114 33 103 23z m9068 -84 c-8 -12 -96 -70 -170 -112 -84 -47 -60 -18 37
45 115 75 148 91 133 67z m-503 -100 c-4 -4 -21 -13 -38 -20 l-30 -12 30 25
c16 13 34 22 38 19 5 -3 5 -8 0 -12z m1267 -202 c-38 -32 -56 -38 -42 -13 11
19 64 55 72 48 3 -3 -11 -19 -30 -35z m-11474 -21 c-22 -13 -91 -29 -81 -20 9
10 67 30 85 31 11 0 9 -3 -4 -11z m12487 -32 c-15 -19 -35 -35 -42 -35 -9 -1
-1 13 19 34 44 45 61 46 23 1z m-11199 -95 c-45 -27 -126 -62 -132 -56 -8 8
-1 12 73 44 80 35 104 40 59 12z m6156 -221 c0 -5 -4 -10 -10 -10 -5 0 -10 5
-10 10 0 6 5 10 10 10 6 0 10 -4 10 -10z m-1873 -22 c-3 -8 -6 -5 -6 6 -1 11
2 17 5 13 3 -3 4 -12 1 -19z m5723 -25 c0 -9 -81 -55 -87 -50 -3 4 68 54 80
56 4 1 7 -2 7 -6z m-10580 -219 c0 -9 -391 -196 -397 -190 -6 6 345 180 395
195 1 1 2 -2 2 -5z m11545 -89 c-51 -45 -65 -53 -65 -35 0 11 90 80 105 79 6
0 -12 -20 -40 -44z m636 -23 c-5 -9 -19 -26 -30 -36 -29 -26 -28 0 1 31 25 27
43 30 29 5z m-472 -145 c-2 -1 -13 -9 -24 -17 -19 -14 -19 -14 -6 3 7 9 18 17
24 17 6 0 8 -1 6 -3z m-899 -97 c0 -5 -4 -10 -10 -10 -5 0 -10 5 -10 10 0 6 5
10 10 10 6 0 10 -4 10 -10z m2799 -92 c-35 -40 -71 -79 -79 -88 -8 -9 -75 -82
-149 -163 -74 -81 -137 -145 -139 -142 -5 5 31 49 102 125 28 30 111 119 185
198 74 78 136 142 138 142 3 0 -24 -32 -58 -72z m-1900 38 c16 -19 -1 -28 -36
-20 -40 10 -47 15 -32 25 21 13 55 11 68 -5z m-8184 -186 c3 -5 1 -10 -4 -10
-6 0 -11 5 -11 10 0 6 2 10 4 10 3 0 8 -4 11 -10z m9035 -150 c0 -12 -98 -90
-113 -90 -13 1 92 100 105 100 4 0 8 -4 8 -10z m771 -87 c-12 -24 -71 -79 -71
-68 0 8 70 85 77 85 2 0 -1 -8 -6 -17z m-2006 -143 c3 -5 1 -10 -4 -10 -6 0
-11 5 -11 10 0 6 2 10 4 10 3 0 8 -4 11 -10z m-12848 -113 c-36 -30 -167 -100
-174 -94 -6 6 57 47 136 88 66 35 75 36 38 6z m14683 10 c0 -12 -58 -59 -180
-146 l-35 -25 30 32 c39 41 168 151 178 151 4 1 7 -5 7 -12z m-4125 -17 c3 -5
1 -10 -4 -10 -6 0 -11 5 -11 10 0 6 2 10 4 10 3 0 8 -4 11 -10z m-9665 -35 c0
-6 -259 -177 -332 -219 -27 -16 -48 -25 -48 -22 0 9 362 245 378 246 1 0 2 -2
2 -5z m14638 -287 c-13 -17 -35 -39 -49 -47 -23 -15 -24 -15 -10 4 28 37 65
75 74 75 5 0 -1 -14 -15 -32z m-16738 -168 c-24 -15 -36 -11 -14 4 10 8 21 12
24 10 2 -3 -2 -9 -10 -14z m2790 -255 c-7 -8 -18 -15 -24 -15 -6 0 -2 7 8 15
25 19 32 19 16 0z m13295 -235 c3 -5 1 -10 -4 -10 -6 0 -11 5 -11 10 0 6 2 10
4 10 3 0 8 -4 11 -10z m-14450 -86 c-22 -20 -49 -41 -60 -47 -18 -9 -19 -9 -5
8 17 20 90 75 99 75 3 -1 -12 -17 -34 -36z m6775 -104 c0 -5 -2 -10 -4 -10 -3
0 -8 5 -11 10 -3 6 -1 10 4 10 6 0 11 -4 11 -10z m-7665 -210 c-24 -27 -225
-166 -225 -157 0 3 44 38 98 79 121 93 165 120 127 78z m14495 -410 c0 -5 -2
-10 -4 -10 -3 0 -8 5 -11 10 -3 6 -1 10 4 10 6 0 11 -4 11 -10z m-4105 -120
c3 -5 1 -10 -4 -10 -6 0 -11 5 -11 10 0 6 2 10 4 10 3 0 8 -4 11 -10z m-7505
-261 c-7 -11 -14 -19 -16 -16 -7 7 7 37 17 37 6 0 5 -9 -1 -21z m-1990 -114
c-13 -14 -26 -22 -29 -19 -3 3 5 14 19 24 34 27 38 25 10 -5z m13270 -245 c0
-5 -2 -10 -4 -10 -3 0 -8 5 -11 10 -3 6 -1 10 4 10 6 0 11 -4 11 -10z"/>
</g>
</svg>
